<?xml version="1.0" encoding="utf-8"?>
<!-- Generator: Adobe Illustrator 16.0.0, SVG Export Plug-In . SVG Version: 6.00 Build 0)  -->
<!DOCTYPE svg PUBLIC "-//W3C//DTD SVG 1.1//EN" "http://www.w3.org/Graphics/SVG/1.1/DTD/svg11.dtd">
<svg version="1.1" id="Camada_1" xmlns="http://www.w3.org/2000/svg" xmlns:xlink="http://www.w3.org/1999/xlink" x="0px" y="0px"
	 width="38.834px" height="38.833px" viewBox="0 0 38.834 38.833" enable-background="new 0 0 38.834 38.833" xml:space="preserve">
<path fill="#FFFFFF" d="M36.232,8.779L28.866,3.61V3.563l-0.063,0.003l-0.001-0.001v0.001L3.167,4.883v22.364l25.699,2.202v-0.052
	l7.366-6.823V8.779z M28.116,28.631L3.917,26.558V5.596l24.199-1.244V28.631z M35.482,22.247l-5.899,5.464L29.554,5.008l5.929,4.16
	V22.247z"/>
<g>
	<path fill="#FFFFFF" d="M6.077,34.696v-0.351h0.97v1.727c-0.427,0.081-0.808,0.122-1.143,0.122c-0.511,0-0.866-0.147-1.063-0.441
		c-0.198-0.295-0.298-0.749-0.298-1.364c0-0.614,0.1-1.069,0.298-1.366c0.197-0.296,0.549-0.444,1.054-0.444
		c0.314,0,0.642,0.034,0.979,0.102l0.173,0.031l-0.015,0.324c-0.42-0.07-0.784-0.106-1.092-0.106c-0.39,0-0.652,0.112-0.788,0.338
		c-0.135,0.226-0.203,0.6-0.203,1.122c0,0.523,0.068,0.897,0.203,1.123c0.136,0.225,0.396,0.337,0.782,0.337
		c0.237,0,0.479-0.023,0.727-0.07v-1.082H6.077z"/>
	<path fill="#FFFFFF" d="M7.504,36.143l0.965-3.515h0.854l0.965,3.515H9.9l-0.254-0.904H8.144L7.89,36.143H7.504z M8.763,32.964
		l-0.533,1.925h1.331l-0.533-1.925H8.763z"/>
	<path fill="#FFFFFF" d="M10.841,36.143v-3.515h0.706l0.995,2.972l0.995-2.972h0.706v3.515h-0.391v-3.098h-0.071l-1.021,2.971
		h-0.437l-1.021-2.971h-0.071v3.098H10.841z"/>
	<path fill="#FFFFFF" d="M15.106,36.143v-3.515h2.138v0.346h-1.747v1.214h1.442v0.34h-1.442v1.27h1.747v0.346H15.106z"/>
	<path fill="#FFFFFF" d="M20.002,32.918c-0.508,0-0.762,0.191-0.762,0.573c0,0.214,0.059,0.36,0.176,0.439
		c0.116,0.08,0.354,0.159,0.711,0.239c0.356,0.079,0.61,0.183,0.759,0.31c0.149,0.127,0.224,0.336,0.224,0.627
		c0,0.722-0.374,1.082-1.122,1.082c-0.247,0-0.558-0.029-0.93-0.087l-0.183-0.025l0.04-0.324c0.461,0.061,0.812,0.091,1.052,0.091
		c0.501,0,0.752-0.235,0.752-0.706c0-0.189-0.056-0.325-0.165-0.408c-0.11-0.083-0.316-0.153-0.617-0.211
		c-0.396-0.085-0.678-0.194-0.844-0.328c-0.165-0.133-0.248-0.357-0.248-0.673c0-0.629,0.377-0.944,1.132-0.944
		c0.247,0,0.544,0.025,0.889,0.076l0.173,0.025l-0.035,0.33C20.532,32.947,20.198,32.918,20.002,32.918z"/>
	<path fill="#FFFFFF" d="M21.419,32.979v-0.351h2.539v0.351h-1.071v3.164H22.5v-3.164H21.419z"/>
	<path fill="#FFFFFF" d="M24.821,35.086c0,0.508,0.274,0.762,0.823,0.762c0.284,0,0.498-0.06,0.643-0.18
		c0.144-0.12,0.216-0.314,0.216-0.582v-2.458h0.386v2.448c0,0.393-0.104,0.677-0.313,0.854c-0.208,0.176-0.516,0.264-0.922,0.264
		s-0.712-0.088-0.916-0.264c-0.205-0.177-0.308-0.461-0.308-0.854v-2.448h0.391V35.086z"/>
	<path fill="#FFFFFF" d="M28.981,36.143h-1.255v-3.515h1.255c0.571,0,0.951,0.228,1.137,0.681c0.108,0.261,0.163,0.603,0.163,1.026
		c0,0.884-0.221,1.44-0.66,1.671C29.444,36.097,29.231,36.143,28.981,36.143z M29.88,34.335c0-0.674-0.15-1.094-0.452-1.26
		c-0.122-0.067-0.271-0.102-0.446-0.102h-0.864v2.823h0.864C29.58,35.797,29.88,35.31,29.88,34.335z"/>
	<path fill="#FFFFFF" d="M31.002,36.143v-3.515h0.391v3.515H31.002z"/>
	<path fill="#FFFFFF" d="M34.887,34.412c0,0.626-0.1,1.08-0.3,1.36c-0.199,0.281-0.563,0.422-1.089,0.422s-0.89-0.144-1.09-0.432
		c-0.199-0.288-0.3-0.74-0.3-1.358s0.102-1.077,0.305-1.376c0.203-0.3,0.564-0.45,1.082-0.45c0.519,0,0.88,0.149,1.084,0.447
		C34.784,33.323,34.887,33.785,34.887,34.412z M32.51,34.401c0,0.515,0.068,0.885,0.203,1.11c0.136,0.225,0.397,0.337,0.785,0.337
		s0.648-0.109,0.782-0.33c0.133-0.22,0.2-0.589,0.2-1.106c0-0.519-0.069-0.896-0.208-1.133s-0.398-0.355-0.779-0.355
		c-0.382,0-0.641,0.117-0.777,0.353C32.578,33.511,32.51,33.886,32.51,34.401z"/>
</g>
<g>
	<g>
		<path fill="#FFFFFF" d="M10.418,16.414c0,0.261-0.048,0.503-0.144,0.726c-0.096,0.224-0.236,0.426-0.421,0.599
			c-0.184,0.172-0.398,0.3-0.64,0.389c-0.242,0.088-0.498,0.132-0.771,0.128c-0.276-0.004-0.535-0.053-0.775-0.147
			c-0.241-0.094-0.456-0.231-0.643-0.405c-0.183-0.17-0.323-0.364-0.417-0.583c-0.095-0.219-0.14-0.457-0.14-0.715
			s0.045-0.498,0.14-0.718c0.094-0.22,0.233-0.413,0.417-0.583c0.186-0.173,0.397-0.306,0.638-0.398s0.503-0.141,0.78-0.144
			s0.535,0.041,0.776,0.129c0.24,0.088,0.458,0.219,0.643,0.393c0.182,0.17,0.32,0.372,0.416,0.597
			C10.373,15.906,10.418,16.151,10.418,16.414z M8.443,17.073c0.187,0.001,0.336-0.06,0.449-0.18
			c0.114-0.121,0.173-0.281,0.173-0.482c0-0.204-0.059-0.367-0.173-0.49c-0.113-0.122-0.263-0.182-0.449-0.182
			S8.105,15.8,7.99,15.924c-0.114,0.124-0.171,0.284-0.171,0.484c0,0.199,0.057,0.36,0.171,0.481
			C8.105,17.011,8.257,17.072,8.443,17.073z"/>
		<path fill="#FFFFFF" d="M10.977,18.194c0-1.431,0-2.146,0-3.577c0.988-0.01,1.482-0.014,2.471-0.023c0,0.394,0,0.591,0,0.985
			c-0.456,0.001-0.685,0.002-1.141,0.004c0,0.167,0,0.25,0,0.418c0.413,0,0.621,0.001,1.034,0.001c0,0.373,0,0.557,0,0.93
			c-0.413-0.002-0.621-0.004-1.034-0.006c0,0.515,0,0.771,0,1.286C11.774,18.205,11.509,18.202,10.977,18.194z"/>
		<path fill="#FFFFFF" d="M16.15,18.264c0-0.995,0-1.492,0-2.487c-0.296,0-0.443,0.001-0.739,0.002c0-0.481,0-0.722,0-1.204
			c1.123-0.011,1.684-0.018,2.807-0.028c0,0.49,0,0.734,0,1.224c-0.296,0-0.443,0.002-0.739,0.003c0,1.003,0,1.505,0,2.509
			C16.947,18.275,16.682,18.271,16.15,18.264z"/>
		<path fill="#FFFFFF" d="M18.646,18.298c0-1.502,0-2.253,0-3.756c0.532-0.005,0.798-0.007,1.33-0.013c0,0.504,0,0.755,0,1.259
			c0.324,0,0.486-0.002,0.811-0.002c0-0.506,0-0.758,0-1.265c0.531-0.005,0.798-0.009,1.329-0.014c0,1.535,0,2.303,0,3.837
			c-0.531-0.007-0.798-0.012-1.329-0.02c0-0.537,0-0.803,0-1.339c-0.324-0.001-0.486-0.004-0.811-0.005c0,0.534,0,0.8,0,1.334
			C19.444,18.308,19.179,18.306,18.646,18.298z"/>
		<path fill="#FFFFFF" d="M22.812,18.354c0-1.541,0-2.31,0-3.851c0.988-0.01,1.486-0.014,2.475-0.024c0,0.424,0,0.636,0,1.06
			c-0.468,0.001-0.703,0.003-1.171,0.004c0,0.15,0,0.224,0,0.374c0.424,0,0.637,0,1.061,0c0,0.4,0,0.6,0,1
			c-0.424-0.002-0.637-0.003-1.061-0.005c0,0.164,0,0.245,0,0.409c0.479,0.003,0.72,0.005,1.199,0.008c0,0.424,0,0.636,0,1.06
			C24.314,18.374,23.812,18.367,22.812,18.354z"/>
	</g>
	<path fill="#FFFFFF" d="M13.359,9.741c0,0.455-0.082,0.881-0.246,1.277c-0.163,0.396-0.401,0.755-0.718,1.066
		c-0.313,0.309-0.683,0.546-1.096,0.714c-0.412,0.168-0.849,0.257-1.314,0.266c-0.472,0.009-0.913-0.061-1.324-0.208
		s-0.777-0.366-1.097-0.653c-0.313-0.28-0.551-0.605-0.712-0.974c-0.161-0.37-0.241-0.772-0.241-1.213
		c0-0.441,0.08-0.854,0.241-1.238s0.398-0.728,0.712-1.035c0.316-0.311,0.68-0.558,1.091-0.738c0.411-0.179,0.855-0.284,1.33-0.313
		c0.474-0.029,0.914,0.021,1.325,0.153c0.412,0.133,0.78,0.343,1.096,0.628c0.311,0.28,0.547,0.619,0.709,1.003
		C13.278,8.86,13.359,9.283,13.359,9.741z M9.985,11.022c0.319-0.011,0.573-0.124,0.768-0.34c0.193-0.216,0.293-0.499,0.293-0.847
		c0-0.351-0.1-0.629-0.293-0.833c-0.194-0.205-0.448-0.298-0.768-0.283S9.407,8.854,9.211,9.075
		C9.016,9.296,8.918,9.578,8.918,9.921s0.098,0.615,0.293,0.815C9.407,10.938,9.666,11.033,9.985,11.022z"/>
	<path fill="#FFFFFF" d="M14.245,9.956c0-1.354,0-2.033,0-3.387c0.907-0.055,1.359-0.083,2.267-0.138c0,1.381,0,2.072,0,3.454
		c0,0.401,0.048,0.676,0.143,0.824c0.095,0.149,0.256,0.217,0.486,0.21c0.228-0.007,0.391-0.088,0.488-0.249s0.146-0.44,0.146-0.835
		c0-1.392,0-2.087,0-3.479c0.907-0.055,1.36-0.083,2.268-0.139c0,1.404,0,2.107,0,3.512c0,0.46-0.029,0.84-0.088,1.14
		c-0.06,0.299-0.156,0.551-0.283,0.754c-0.254,0.406-0.599,0.726-1.035,0.949s-0.936,0.339-1.496,0.351
		c-0.563,0.011-1.063-0.084-1.5-0.284c-0.438-0.2-0.781-0.496-1.035-0.875c-0.125-0.187-0.218-0.423-0.275-0.705
		C14.272,10.774,14.245,10.408,14.245,9.956z"/>
	<path fill="#FFFFFF" d="M22.035,12.648c0-1.764,0-2.645,0-4.409C21.53,8.264,21.277,8.276,20.772,8.3c0-0.851,0-1.277,0-2.128
		c1.918-0.116,2.876-0.175,4.794-0.292c0,0.876,0,1.315,0,2.191c-0.505,0.024-0.758,0.036-1.263,0.06c0,1.788,0,2.682,0,4.469
		C23.396,12.62,22.942,12.629,22.035,12.648z"/>
	<g>
		<path fill="#FFFFFF" d="M6.973,25.215c0-2.271,0-3.407,0-5.678c1.153,0.026,1.73,0.039,2.884,0.065
			c0.617,0.014,1.098,0.166,1.443,0.455s0.516,0.686,0.516,1.188c0,0.32-0.079,0.584-0.242,0.79s-0.694,0.386-0.694,0.386
			c0,0.009,0.713,0.268,0.913,0.506c0.2,0.238,0.3,0.551,0.3,0.939c0,0.548-0.19,0.951-0.57,1.207
			c-0.379,0.256-0.938,0.362-1.675,0.317C8.696,25.32,8.123,25.285,6.973,25.215z M9.004,20.952c0,0.322,0,0.483,0,0.806
			c0.113,0.004,0.17,0.006,0.283,0.011c0.176,0.006,0.309-0.024,0.401-0.091c0.091-0.066,0.139-0.165,0.139-0.296
			c0-0.132-0.048-0.235-0.139-0.306c-0.091-0.071-0.226-0.11-0.401-0.115C9.174,20.957,9.117,20.955,9.004,20.952z M9.004,22.998
			c0,0.368,0,0.551,0,0.918c0.145,0.007,0.217,0.012,0.361,0.019c0.217,0.011,0.383-0.022,0.5-0.097
			c0.116-0.074,0.175-0.186,0.175-0.333c0-0.15-0.059-0.268-0.175-0.352c-0.117-0.084-0.283-0.131-0.5-0.141
			C9.221,23.007,9.148,23.004,9.004,22.998z"/>
		<path fill="#FFFFFF" d="M19.093,22.896c0,0.45-0.076,0.864-0.232,1.243s-0.385,0.715-0.687,0.998
			c-0.299,0.28-0.648,0.486-1.041,0.62c-0.394,0.134-0.813,0.187-1.258,0.16c-0.449-0.028-0.87-0.132-1.263-0.31
			c-0.392-0.178-0.739-0.425-1.043-0.735c-0.298-0.303-0.525-0.644-0.679-1.021c-0.154-0.379-0.23-0.786-0.23-1.223
			c0-0.438,0.076-0.84,0.23-1.208c0.153-0.368,0.381-0.691,0.679-0.97c0.302-0.282,0.646-0.497,1.038-0.642
			c0.393-0.145,0.815-0.212,1.268-0.203s0.874,0.097,1.266,0.262c0.393,0.166,0.744,0.401,1.046,0.709
			c0.296,0.303,0.521,0.656,0.676,1.049C19.018,22.018,19.093,22.442,19.093,22.896z M15.875,23.893
			c0.305,0.015,0.55-0.075,0.734-0.274s0.275-0.472,0.275-0.816c0-0.348-0.091-0.63-0.275-0.848c-0.185-0.217-0.43-0.33-0.734-0.341
			c-0.304-0.01-0.55,0.087-0.735,0.289c-0.187,0.203-0.28,0.475-0.28,0.815s0.094,0.617,0.28,0.832
			C15.325,23.764,15.571,23.878,15.875,23.893z"/>
		<path fill="#FFFFFF" d="M22.348,24.729c-0.058-0.131-0.101-0.237-0.13-0.317c-0.028-0.08-0.063-0.215-0.063-0.215
			c-0.001,0-0.028,0.124-0.056,0.194c-0.027,0.072-0.077,0.177-0.146,0.315c-0.273,0.552-0.408,0.827-0.682,1.375
			c-0.99-0.06-1.486-0.089-2.477-0.149c0.855-1.254,1.28-1.89,2.136-3.178c-0.755-1.19-1.131-1.778-1.886-2.942
			c0.988,0.022,1.485,0.032,2.474,0.055c0.178,0.411,0.265,0.619,0.442,1.031c0.005,0.012,0.016,0.03,0.026,0.056
			c0.082,0.196,0.167,0.465,0.167,0.465c0.002,0,0.043-0.148,0.072-0.226c0.028-0.077,0.064-0.172,0.11-0.285
			c0.183-0.403,0.274-0.606,0.457-1.012c0.983,0.022,1.479,0.034,2.463,0.057c-0.752,1.174-1.13,1.754-1.882,2.901
			c0.855,1.377,1.282,2.073,2.138,3.485c-0.99-0.06-1.485-0.088-2.476-0.148C22.761,25.604,22.624,25.311,22.348,24.729z"/>
	</g>
</g>
</svg>
